<?xml version="1.0" encoding="iso-8859-1"?>
<!-- Uploaded to: SVG Repo, www.svgrepo.com, Generator: SVG Repo Mixer Tools -->
<svg height="800px" width="800px" version="1.1" id="Capa_1" xmlns="http://www.w3.org/2000/svg" xmlns:xlink="http://www.w3.org/1999/xlink" 
	 viewBox="0 0 511.947 511.947" xml:space="preserve">
<g>
	<g>
		<path style="fill:#D7DBE0;" d="M509.492,139.794c-4.906-11.844-14.133-21.07-25.977-25.977s-24.891-4.906-36.734,0
			L153.179,235.661l-97.742-29.492c-7.203-2.18-14.977-1.734-21.883,1.234L4.843,219.747c-2.375,1.023-4.109,3.117-4.656,5.641
			c-0.555,2.516,0.141,5.148,1.867,7.063l58.352,64.789c17.031,18.898,41.023,29.086,65.484,29.086
			c11.305,0,22.719-2.18,33.578-6.68l332.711-138.039c7.898-3.273,14.047-9.422,17.313-17.32
			C512.765,156.387,512.765,147.692,509.492,139.794z"/>
	</g>
	<g>
		<path style="fill:#45BDF0;" d="M508.116,145.278L175.405,283.317c-10.859,4.5-22.273,6.68-33.578,6.68
			c-24.461,0-48.453-10.188-65.484-29.086L29.66,209.077L4.843,219.747c-2.375,1.023-4.109,3.117-4.656,5.641
			c-0.555,2.516,0.141,5.148,1.867,7.063l58.352,64.789c17.031,18.898,41.023,29.086,65.484,29.086
			c11.305,0,22.719-2.18,33.578-6.68l332.711-138.039c7.898-3.273,14.047-9.422,17.313-17.32c2.721-6.564,3.046-13.656,1.244-20.406
			C509.858,144.342,509.044,144.894,508.116,145.278z"/>
	</g>
	<g>
		<path style="fill:#8A8895;" d="M358.056,262.949l-103.475,42.861l-16-39.017l103.39-42.826c8.197-3.395,17.591,0.527,20.94,8.743
			l3.804,9.333C370.097,250.208,366.22,259.567,358.056,262.949z"/>
	</g>
	<g>
		<g>
			<path style="fill:#5C546A;" d="M436.812,160.606c-2.078,0-4.156-0.875-5.594-2.398c-1.523-1.438-2.406-3.523-2.406-5.68
				c0-2.078,0.883-4.164,2.406-5.602c2.875-2.961,8.32-2.961,11.273,0c1.523,1.438,2.32,3.523,2.32,5.602
				c0,2.156-0.797,4.242-2.32,5.68C441.054,159.731,438.976,160.606,436.812,160.606z"/>
		</g>
	</g>
	<g>
		<g>
			<path style="fill:#5C546A;" d="M192.976,261.567c-2.164,0-4.242-0.797-5.68-2.32c-1.523-1.438-2.32-3.516-2.32-5.68
				c0-2.078,0.797-4.156,2.32-5.68c2.961-2.883,8.32-2.961,11.281,0.078c1.516,1.445,2.398,3.523,2.398,5.602
				c0,2.164-0.883,4.164-2.398,5.68C197.132,260.77,195.054,261.567,192.976,261.567z"/>
		</g>
	</g>
	<g>
		<g>
			<path style="fill:#5C546A;" d="M170.734,270.77c-2.078,0-4.156-0.883-5.602-2.32c-1.516-1.523-2.398-3.602-2.398-5.68
				c0-2.086,0.883-4.164,2.398-5.68c2.883-2.961,8.32-2.961,11.281,0c1.523,1.516,2.32,3.594,2.32,5.68
				c0,2.078-0.797,4.156-2.32,5.68C174.976,269.966,172.898,270.77,170.734,270.77z"/>
		</g>
	</g>
	<g>
		<g>
			<path style="fill:#5C546A;" d="M414.656,169.731c-2.078,0-4.164-0.805-5.68-2.32c-1.438-1.445-2.32-3.523-2.32-5.68
				c0-2.086,0.883-4.164,2.398-5.68c2.961-2.883,8.32-2.961,11.281,0c1.523,1.516,2.32,3.594,2.32,5.68
				c0,2.078-0.797,4.156-2.32,5.68C418.812,168.927,416.812,169.731,414.656,169.731z"/>
		</g>
	</g>
	<g>
		<path style="fill:#B8BAC0;" d="M379.921,182.88c-2.172-3.055-6.172-4.203-9.586-2.758l-147.82,61.227
			c-1.695,0.703-3.102,1.969-3.977,3.586l-78.461,145.07c-1.609,2.977-1.172,6.648,1.102,9.164c1.547,1.719,3.719,2.641,5.938,2.641
			c1.031,0,2.07-0.195,3.063-0.609l66.516-27.555c1.109-0.461,2.102-1.164,2.898-2.063l159.766-178.742
			C381.851,190.059,382.086,185.927,379.921,182.88z"/>
	</g>
	<g>
		<path style="fill:#5C546A;" d="M494.181,120.166l-25.229,10.448c-4.078,1.688-6.016,6.367-4.328,10.453
			c1.273,3.078,4.258,4.938,7.391,4.938c1.023,0,2.063-0.195,3.063-0.609l30.634-12.687
			C502.657,127.82,498.738,123.638,494.181,120.166z"/>
	</g>
</g>
</svg>